<svg width="300" height="150" viewBox="0 0 300 150" fill="none" xmlns="http://www.w3.org/2000/svg">
<path d="M300 0H0V150H300V0Z" fill="#00242C"/>
<path d="M149.833 63.5714L168.173 45H160.482L141.508 64.4841V45H135V83.3333H141.508V70.9921L145.1 67.3413L158.538 83.3333H167.243L149.833 63.5714ZM189.555 83.3333H195.979C195.514 80.0397 195.387 78.0556 195.387 75.8333V65.4365C195.387 64.0476 195.345 62.5 195.218 61.2698C194.711 56.2698 191.499 53.0556 183.386 53.0556C176.244 53.0556 171.089 56.7063 170.666 63.1746H177.174C177.554 59.4841 179.498 57.5 183.259 57.5C187.02 57.5 188.584 59.1667 188.795 61.5476C188.879 62.6587 188.879 63.6508 188.879 64.7619V65.5159H186.893C174.976 65.5159 169.44 69.0476 169.44 75.5952C169.44 81.1111 174.004 84.127 179.54 84.127C182.498 84.127 185.245 83.6111 187.358 82.2222L188.964 79.0476L189.555 83.3333ZM181.907 79.6825C178.484 79.6825 176.286 78.2143 176.286 75.119C176.286 70.5952 181.273 69.0079 188.879 69.5635V72.2619C188.879 77.0635 186.006 79.6825 181.907 79.6825ZM231.18 53.8492H224.165L215.587 78.7698L206.924 53.8492H199.655L212.333 84.7222L211.868 85.7936C210.431 89.2063 208.403 90.3968 205.445 90.3968C204.811 90.3968 204.177 90.3968 203.374 90.3175V94.8413C204.346 95 205.149 95 206.459 95C212.164 95 215.502 92.2222 218.418 85.2381L231.18 53.8492ZM253.577 83.3333H260C259.535 80.0397 259.408 78.0556 259.408 75.8333V65.4365C259.408 64.0476 259.366 62.5 259.239 61.2698C258.69 56.2698 255.521 53.0556 247.407 53.0556C240.265 53.0556 235.11 56.7063 234.687 63.1746H241.195C241.533 59.4841 243.519 57.5 247.28 57.5C250.999 57.5 252.605 59.1667 252.774 61.5476C252.901 62.6587 252.901 63.6508 252.901 64.7619V65.5159H250.914C238.998 65.5159 233.462 69.0476 233.462 75.5952C233.462 81.1111 237.983 84.127 243.562 84.127C246.52 84.127 249.224 83.6111 251.379 82.2222L252.985 79.0476L253.577 83.3333ZM245.928 79.6825C242.505 79.6825 240.308 78.2143 240.308 75.119C240.308 70.5952 245.294 69.0079 252.901 69.5635V72.2619C252.901 77.0635 250.027 79.6825 245.928 79.6825Z" fill="#FFB742"/>
<path d="M41.5 25.7032L121.478 53.5094L41.5 81.3187V25.7032ZM42.5225 96.4906L122.5 68.6813V124.297L42.5225 96.4906Z" fill="url(#paint0_linear_2_2)" stroke="#FFBF42"/>
<path d="M135 106.537L135.004 106.203H136.241V106.537H136.13C136.012 106.537 135.939 106.541 135.91 106.549C135.865 106.569 135.843 106.6 135.843 106.644C135.843 106.672 135.876 106.769 135.941 106.936L136.733 108.815L137.694 106.746C137.715 106.682 137.727 106.648 137.729 106.644C137.729 106.573 137.61 106.537 137.371 106.537H137.284L137.276 106.203H138.281V106.537H138.253C138.161 106.537 138.097 106.553 138.06 106.584C138.018 106.616 137.959 106.716 137.883 106.883L136.808 109.239V111.058C136.808 111.233 136.822 111.342 136.851 111.386C136.877 111.425 136.97 111.445 137.131 111.445H137.383L137.375 111.767H135.827L135.831 111.445H136.052C136.193 111.445 136.28 111.429 136.311 111.398C136.346 111.362 136.363 111.254 136.363 111.076V109.173L135.457 107.044C135.347 106.785 135.274 106.634 135.24 106.59C135.214 106.555 135.134 106.537 135 106.537ZM141.333 106.537L141.325 106.203H144.168C144.171 106.624 144.179 107.062 144.192 107.515L143.979 107.527C143.974 107.272 143.965 107.064 143.952 106.901C143.941 106.757 143.928 106.668 143.912 106.632C143.899 106.596 143.877 106.575 143.845 106.567C143.822 106.563 143.732 106.561 143.577 106.561H142.64C142.496 106.561 142.405 106.579 142.368 106.614C142.337 106.65 142.321 106.761 142.321 106.948V108.111C142.321 108.274 142.328 108.37 142.341 108.398C142.359 108.429 142.413 108.445 142.502 108.445H143.333C143.43 108.445 143.49 108.423 143.511 108.38C143.532 108.34 143.543 108.223 143.546 108.028V107.712L143.747 107.724V109.716H143.546V109.28C143.546 109.05 143.535 108.917 143.514 108.881C143.493 108.837 143.437 108.815 143.345 108.815H142.518C142.431 108.815 142.376 108.831 142.353 108.863C142.332 108.899 142.321 108.968 142.321 109.072V111.046C142.321 111.193 142.332 111.286 142.353 111.326C142.376 111.366 142.424 111.386 142.494 111.386C143.261 111.378 143.714 111.362 143.853 111.338C143.99 111.314 144.068 111.252 144.089 111.153V111.141L144.093 111.135L144.184 110.431L144.373 110.479L144.235 111.767H141.435V111.445H141.581C141.728 111.445 141.813 111.431 141.837 111.404C141.86 111.372 141.872 111.278 141.872 111.123V106.895C141.872 106.728 141.853 106.626 141.813 106.59C141.769 106.555 141.66 106.537 141.486 106.537H141.333ZM147.461 110.354L147.658 110.318L147.728 110.837C147.757 111.028 147.781 111.139 147.799 111.171C147.818 111.203 147.881 111.249 147.988 111.308C148.209 111.431 148.436 111.493 148.67 111.493C148.877 111.493 149.052 111.402 149.193 111.219C149.333 111.04 149.402 110.795 149.402 110.485C149.402 110.243 149.342 110.034 149.221 109.859C149.098 109.68 148.923 109.499 148.697 109.316L148.473 109.125C148.276 108.954 148.147 108.831 148.087 108.755C147.992 108.644 147.904 108.491 147.823 108.296C147.739 108.101 147.697 107.877 147.697 107.622C147.697 107.197 147.808 106.843 148.032 106.561C148.252 106.278 148.507 106.137 148.796 106.137C148.869 106.137 148.952 106.151 149.044 106.179C149.096 106.195 149.167 106.221 149.256 106.256L149.351 106.304C149.375 106.304 149.392 106.286 149.402 106.25C149.418 106.207 149.426 106.171 149.426 106.143L149.43 106.083L149.619 106.066L149.701 107.592L149.501 107.604L149.453 106.859C149.259 106.636 149.008 106.525 148.701 106.525C148.533 106.525 148.383 106.61 148.252 106.781C148.126 106.948 148.063 107.161 148.063 107.419C148.063 107.658 148.122 107.867 148.24 108.046C148.353 108.217 148.524 108.398 148.752 108.588L149.056 108.839C149.305 109.05 149.499 109.266 149.638 109.489C149.78 109.712 149.851 109.976 149.851 110.282C149.851 110.708 149.738 111.074 149.512 111.38C149.284 111.69 148.979 111.845 148.599 111.845C148.452 111.845 148.311 111.819 148.177 111.767C148.046 111.72 147.974 111.696 147.961 111.696C147.892 111.696 147.858 111.753 147.858 111.869L147.866 111.976L147.677 112C147.661 111.845 147.589 111.296 147.461 110.354ZM156.991 106.537H156.897V106.203H158.121L158.114 106.537H157.995C157.777 106.537 157.669 106.596 157.669 106.716C157.669 106.751 157.672 106.781 157.68 106.805L158.633 110.783L159.543 107.258L159.504 107.091C159.496 107.072 159.489 107.046 159.484 107.014C159.479 106.982 159.474 106.956 159.468 106.936C159.463 106.913 159.459 106.895 159.456 106.883C159.449 106.859 159.432 106.807 159.405 106.728C159.384 106.664 159.359 106.614 159.33 106.579C159.307 106.551 159.273 106.537 159.228 106.537H158.96V106.203H160.272V106.537H159.98C159.92 106.537 159.882 106.545 159.866 106.561C159.848 106.577 159.837 106.612 159.835 106.668C159.835 106.724 159.867 106.903 159.933 107.205L160.74 110.759L161.721 106.859C161.737 106.791 161.745 106.744 161.745 106.716C161.745 106.64 161.722 106.59 161.678 106.567C161.636 106.547 161.567 106.537 161.473 106.537H161.331V106.203H162.272L162.28 106.537H162.213C162.121 106.537 162.062 106.563 162.036 106.614C162.005 106.69 161.956 106.855 161.89 107.109L160.673 111.905H160.579L159.646 107.73L158.574 111.899H158.488L157.314 107.062C157.259 106.839 157.21 106.694 157.168 106.626C157.126 106.563 157.067 106.533 156.991 106.537ZM165.328 106.537L165.324 106.203H168.164C168.169 106.624 168.178 107.062 168.192 107.515L167.975 107.527C167.972 107.272 167.963 107.064 167.947 106.901C167.937 106.757 167.925 106.668 167.912 106.632C167.896 106.596 167.874 106.575 167.845 106.567C167.819 106.563 167.728 106.561 167.573 106.561H166.64C166.495 106.561 166.405 106.579 166.368 106.614C166.334 106.65 166.317 106.761 166.317 106.948V108.111C166.317 108.274 166.325 108.37 166.341 108.398C166.359 108.429 166.413 108.445 166.502 108.445H167.333C167.427 108.445 167.485 108.423 167.506 108.38C167.53 108.34 167.542 108.223 167.542 108.028V107.712L167.746 107.724V109.716H167.542V109.28C167.542 109.05 167.533 108.917 167.514 108.881C167.493 108.837 167.437 108.815 167.345 108.815H166.518C166.428 108.815 166.373 108.831 166.352 108.863C166.329 108.899 166.317 108.968 166.317 109.072V111.046C166.317 111.193 166.329 111.286 166.352 111.326C166.373 111.366 166.421 111.386 166.494 111.386C167.261 111.378 167.712 111.362 167.849 111.338C167.985 111.314 168.064 111.252 168.085 111.153L168.089 111.141L168.093 111.135L168.18 110.431L168.369 110.479L168.231 111.767H165.435V111.445H165.58C165.727 111.445 165.811 111.431 165.833 111.404C165.859 111.372 165.872 111.278 165.872 111.123V106.895C165.872 106.728 165.852 106.626 165.813 106.59C165.768 106.555 165.659 106.537 165.486 106.537H165.328ZM175.257 106.537L175.241 106.203H176.73C177.076 106.203 177.362 106.225 177.588 106.268C177.803 106.308 178.002 106.408 178.183 106.567C178.435 106.797 178.627 107.105 178.758 107.491C178.886 107.877 178.951 108.304 178.951 108.773C178.951 109.036 178.932 109.286 178.896 109.525C178.854 109.779 178.781 110.044 178.679 110.318C178.566 110.616 178.436 110.861 178.289 111.052C178.124 111.27 177.914 111.443 177.659 111.571C177.396 111.702 177.099 111.767 176.765 111.767H175.339L175.335 111.445H175.481C175.618 111.445 175.699 111.429 175.725 111.398C175.754 111.362 175.769 111.254 175.769 111.076V106.835C175.769 106.688 175.757 106.602 175.733 106.579C175.704 106.551 175.623 106.537 175.489 106.537H175.257ZM176.218 106.984V111.058C176.218 111.237 176.239 111.346 176.281 111.386C176.323 111.425 176.458 111.445 176.686 111.445C176.962 111.445 177.204 111.394 177.411 111.29C177.637 111.187 177.806 111.064 177.919 110.92C178.05 110.757 178.155 110.571 178.234 110.36C178.315 110.149 178.373 109.932 178.407 109.71C178.439 109.491 178.455 109.264 178.455 109.03C178.455 108.716 178.419 108.421 178.348 108.147C178.28 107.873 178.176 107.616 178.037 107.378C177.898 107.143 177.709 106.952 177.47 106.805C177.226 106.662 176.951 106.59 176.647 106.59H176.442C176.348 106.59 176.287 106.614 176.261 106.662C176.232 106.718 176.218 106.825 176.218 106.984ZM182.097 106.537L182.09 106.203H184.933C184.936 106.624 184.943 107.062 184.957 107.515L184.744 107.527C184.739 107.272 184.73 107.064 184.716 106.901C184.706 106.757 184.693 106.668 184.677 106.632C184.664 106.596 184.642 106.575 184.61 106.567C184.586 106.563 184.497 106.561 184.342 106.561H183.405C183.261 106.561 183.17 106.579 183.133 106.614C183.102 106.65 183.086 106.761 183.086 106.948V108.111C183.086 108.274 183.093 108.37 183.106 108.398C183.124 108.429 183.178 108.445 183.267 108.445H184.098C184.195 108.445 184.254 108.423 184.275 108.38C184.296 108.34 184.308 108.223 184.311 108.028V107.712L184.512 107.724V109.716H184.311V109.28C184.311 109.05 184.3 108.917 184.279 108.881C184.258 108.837 184.202 108.815 184.11 108.815H183.283C183.196 108.815 183.141 108.831 183.117 108.863C183.096 108.899 183.086 108.968 183.086 109.072V111.046C183.086 111.193 183.096 111.286 183.117 111.326C183.141 111.366 183.188 111.386 183.259 111.386C184.026 111.378 184.479 111.362 184.618 111.338C184.754 111.314 184.833 111.252 184.854 111.153V111.141L184.858 111.135L184.949 110.431L185.138 110.479L185 111.767H182.2V111.445H182.346C182.493 111.445 182.578 111.431 182.602 111.404C182.625 111.372 182.637 111.278 182.637 111.123V106.895C182.637 106.728 182.617 106.626 182.578 106.59C182.533 106.555 182.424 106.537 182.251 106.537H182.097ZM188.241 106.537L188.237 106.203H191.065C191.07 106.624 191.079 107.062 191.092 107.515L190.88 107.527C190.874 107.272 190.865 107.064 190.852 106.901C190.842 106.757 190.829 106.668 190.813 106.632C190.8 106.596 190.777 106.575 190.746 106.567C190.722 106.563 190.633 106.561 190.478 106.561H189.541C189.396 106.561 189.306 106.579 189.269 106.614C189.237 106.65 189.222 106.761 189.222 106.948V108.111C189.222 108.274 189.228 108.37 189.241 108.398C189.26 108.429 189.312 108.445 189.399 108.445H190.234C190.328 108.445 190.387 108.425 190.411 108.386C190.432 108.346 190.443 108.233 190.443 108.046V107.724H190.647V109.716H190.443V109.292C190.443 109.062 190.432 108.924 190.411 108.881C190.387 108.837 190.332 108.815 190.246 108.815H189.419C189.332 108.815 189.277 108.831 189.253 108.863C189.232 108.899 189.222 108.968 189.222 109.072V111.046C189.222 111.205 189.23 111.31 189.245 111.362C189.269 111.417 189.315 111.445 189.383 111.445H189.753V111.767H188.336V111.445H188.497C188.631 111.445 188.71 111.429 188.733 111.398C188.76 111.362 188.773 111.27 188.773 111.123V106.895C188.773 106.716 188.75 106.61 188.706 106.579C188.669 106.551 188.514 106.537 188.241 106.537ZM194.495 106.537H194.263L194.267 106.203H195.653V106.537H195.558C195.417 106.537 195.323 106.555 195.279 106.59C195.242 106.622 195.224 106.732 195.224 106.918V111.058C195.224 111.241 195.238 111.35 195.267 111.386C195.296 111.425 195.38 111.445 195.519 111.445H195.736L195.74 111.767H194.33L194.326 111.445H194.467C194.614 111.445 194.702 111.425 194.731 111.386C194.76 111.346 194.775 111.243 194.775 111.076V106.835C194.775 106.688 194.762 106.602 194.735 106.579C194.706 106.551 194.626 106.537 194.495 106.537ZM198.792 106.537L198.788 106.203H199.642L201.903 110.616V106.835C201.903 106.704 201.883 106.62 201.844 106.584C201.802 106.553 201.72 106.537 201.6 106.537H201.407L201.418 106.203H202.592V106.537H202.466C202.343 106.537 202.261 106.559 202.222 106.602C202.182 106.646 202.163 106.746 202.163 106.901V111.714V111.803C202.163 111.823 202.161 111.843 202.159 111.863C202.156 111.879 202.15 111.893 202.139 111.905C202.137 111.909 202.127 111.911 202.112 111.911H202.037H202.013H202.001L201.993 111.905C201.986 111.905 201.979 111.903 201.974 111.899C201.971 111.891 201.97 111.885 201.97 111.881C201.97 111.873 201.969 111.867 201.966 111.863C201.958 111.851 201.95 111.837 201.942 111.821C201.94 111.813 201.936 111.803 201.93 111.791C201.925 111.775 201.92 111.765 201.915 111.761L199.512 107.085L199.54 111.058C199.54 111.237 199.561 111.346 199.603 111.386C199.645 111.425 199.759 111.445 199.946 111.445H200.04V111.767H198.882V111.445H199.048C199.147 111.445 199.212 111.423 199.241 111.38C199.264 111.34 199.277 111.239 199.28 111.076V106.632L199.225 106.537H198.792ZM205.873 106.537H205.64L205.644 106.203H207.03V106.537H206.936C206.794 106.537 206.7 106.555 206.652 106.59C206.618 106.622 206.601 106.732 206.601 106.918V111.058C206.601 111.241 206.616 111.35 206.645 111.386C206.673 111.425 206.757 111.445 206.897 111.445H207.113L207.117 111.767H205.707L205.699 111.445H205.845C205.992 111.445 206.08 111.425 206.109 111.386C206.138 111.346 206.152 111.243 206.152 111.076V106.835C206.152 106.688 206.139 106.602 206.113 106.579C206.084 106.551 206.004 106.537 205.873 106.537ZM210.276 107.557L210.079 107.545C210.11 107.083 210.138 106.636 210.161 106.203H213.343C213.32 106.62 213.305 106.909 213.3 107.068C213.287 107.358 213.278 107.515 213.273 107.539L213.08 107.527C213.101 107.145 213.111 106.918 213.111 106.847C213.111 106.736 213.091 106.662 213.052 106.626C213.007 106.586 212.933 106.567 212.828 106.567H212.193C212.062 106.567 211.98 106.586 211.945 106.626C211.922 106.658 211.909 106.771 211.906 106.966V111.058C211.906 111.233 211.926 111.34 211.965 111.38C212.004 111.423 212.092 111.445 212.229 111.445H212.449L212.453 111.767L211 111.761V111.445H211.087C211.263 111.445 211.369 111.429 211.406 111.398C211.443 111.362 211.461 111.26 211.461 111.093V107.038C211.461 106.815 211.448 106.68 211.422 106.632C211.398 106.588 211.33 106.567 211.217 106.567H210.638C210.591 106.567 210.558 106.571 210.539 106.579C210.521 106.583 210.497 106.584 210.469 106.584C210.461 106.584 210.442 106.598 210.413 106.626C210.392 106.646 210.378 106.66 210.37 106.668C210.362 106.676 210.353 106.702 210.343 106.746C210.335 106.769 210.328 106.799 210.323 106.835C210.315 106.863 210.308 106.907 210.303 106.966C210.295 107.058 210.291 107.107 210.291 107.115C210.291 107.191 210.29 107.258 210.287 107.318C210.287 107.346 210.286 107.386 210.283 107.437C210.281 107.493 210.278 107.533 210.276 107.557ZM216.396 106.537L216.388 106.203H219.231C219.234 106.624 219.242 107.062 219.255 107.515L219.042 107.527C219.037 107.272 219.028 107.064 219.015 106.901C219.004 106.757 218.991 106.668 218.975 106.632C218.962 106.596 218.94 106.575 218.908 106.567C218.885 106.563 218.795 106.561 218.64 106.561H217.703C217.559 106.561 217.468 106.579 217.431 106.614C217.4 106.65 217.384 106.761 217.384 106.948V108.111C217.384 108.274 217.391 108.37 217.404 108.398C217.422 108.429 217.476 108.445 217.565 108.445H218.396C218.493 108.445 218.552 108.423 218.573 108.38C218.594 108.34 218.606 108.223 218.609 108.028V107.712L218.81 107.724V109.716H218.609V109.28C218.609 109.05 218.598 108.917 218.577 108.881C218.556 108.837 218.5 108.815 218.408 108.815H217.581C217.494 108.815 217.439 108.831 217.416 108.863C217.395 108.899 217.384 108.968 217.384 109.072V111.046C217.384 111.193 217.395 111.286 217.416 111.326C217.439 111.366 217.486 111.386 217.557 111.386C218.324 111.378 218.777 111.362 218.916 111.338C219.053 111.314 219.131 111.252 219.152 111.153V111.141L219.156 111.135L219.247 110.431L219.436 110.479L219.298 111.767H216.498V111.445H216.644C216.791 111.445 216.876 111.431 216.9 111.404C216.923 111.372 216.935 111.278 216.935 111.123V106.895C216.935 106.728 216.915 106.626 216.876 106.59C216.831 106.555 216.722 106.537 216.549 106.537H216.396ZM222.728 106.537H222.535L222.539 106.203H223.953V106.537H223.705C223.605 106.537 223.541 106.553 223.512 106.584C223.483 106.616 223.469 106.704 223.469 106.847V111.058C223.469 111.197 223.479 111.286 223.5 111.326C223.524 111.366 223.574 111.386 223.65 111.386C224.403 111.374 224.867 111.346 225.04 111.302C225.095 111.294 225.133 111.247 225.154 111.159C225.175 111.072 225.212 110.805 225.265 110.36L225.457 110.378L225.276 111.767H222.614L222.606 111.445H222.76C222.894 111.445 222.97 111.431 222.988 111.404C223.009 111.372 223.021 111.278 223.024 111.123V106.805C223.024 106.69 223.003 106.616 222.961 106.584C222.921 106.553 222.844 106.537 222.728 106.537ZM228.561 106.537L228.565 106.203H229.801V106.537H229.691C229.573 106.537 229.499 106.541 229.471 106.549C229.426 106.569 229.404 106.6 229.404 106.644C229.404 106.672 229.436 106.769 229.502 106.936L230.29 108.815L231.255 106.746C231.276 106.682 231.287 106.648 231.29 106.644C231.29 106.573 231.169 106.537 230.928 106.537H230.845L230.837 106.203H231.841V106.537H231.814C231.722 106.537 231.656 106.553 231.617 106.584C231.578 106.616 231.52 106.716 231.444 106.883L230.368 109.239V111.058C230.368 111.233 230.383 111.342 230.412 111.386C230.438 111.425 230.531 111.445 230.691 111.445H230.943L230.936 111.767H229.388L229.392 111.445H229.612C229.751 111.445 229.838 111.429 229.872 111.398C229.906 111.362 229.923 111.254 229.923 111.076V109.173L229.018 107.044C228.907 106.785 228.835 106.634 228.801 106.59C228.772 106.555 228.692 106.537 228.561 106.537ZM238.808 109.149C238.808 108.688 238.87 108.252 238.993 107.843C239.114 107.453 239.273 107.143 239.47 106.913C239.667 106.682 239.883 106.503 240.12 106.376C240.353 106.249 240.58 106.185 240.801 106.185C241.029 106.185 241.231 106.207 241.407 106.25C241.573 106.29 241.694 106.332 241.77 106.376C241.851 106.419 241.896 106.441 241.904 106.441C241.951 106.441 241.977 106.427 241.982 106.4C241.988 106.368 241.99 106.304 241.99 106.209V106.137H242.203C242.213 106.666 242.236 107.197 242.27 107.73L242.069 107.736C242.061 107.636 242.056 107.559 242.053 107.503C242.053 107.479 242.052 107.453 242.049 107.425C242.049 107.402 242.048 107.38 242.045 107.36C242.043 107.344 242.041 107.33 242.041 107.318C242.036 107.274 242.034 107.233 242.034 107.193C242.034 107.169 242.027 107.139 242.014 107.103C242.014 107.095 242.01 107.087 242.002 107.08C241.994 107.068 241.99 107.058 241.99 107.05C241.985 107.026 241.973 107.008 241.955 106.996C241.944 106.984 241.935 106.976 241.927 106.972C241.919 106.968 241.911 106.964 241.904 106.96C241.901 106.96 241.897 106.956 241.892 106.948C241.884 106.94 241.875 106.932 241.864 106.924C241.854 106.917 241.843 106.909 241.833 106.901C241.772 106.865 241.74 106.843 241.734 106.835C241.642 106.763 241.512 106.702 241.344 106.65C241.168 106.602 240.993 106.579 240.817 106.579C240.365 106.579 239.996 106.803 239.71 107.252C239.419 107.71 239.274 108.262 239.277 108.911C239.277 109.598 239.436 110.209 239.753 110.742C240.071 111.27 240.467 111.535 240.943 111.535C241.208 111.535 241.464 111.429 241.711 111.219C241.96 111 242.089 110.819 242.097 110.676L242.112 109.978H242.305L242.274 111.195C242.255 111.211 242.229 111.235 242.195 111.266C242.182 111.278 242.114 111.334 241.99 111.433C241.893 111.513 241.785 111.588 241.667 111.66C241.573 111.724 241.44 111.779 241.27 111.827C241.109 111.875 240.956 111.901 240.809 111.905C240.184 111.905 239.693 111.656 239.336 111.159C238.984 110.662 238.808 109.992 238.808 109.149ZM245.476 111.767L245.472 111.445H245.539C245.641 111.445 245.709 111.417 245.743 111.362C245.775 111.298 245.834 111.119 245.921 110.825L246.279 109.626L246.507 108.857C246.576 108.634 246.615 108.501 246.626 108.457C246.644 108.394 246.66 108.342 246.673 108.302C246.689 108.266 246.698 108.237 246.7 108.213L246.74 108.07L247.299 106H247.417C247.64 106.891 248.039 108.384 248.614 110.479C248.733 110.913 248.817 111.189 248.866 111.308C248.903 111.4 248.979 111.445 249.095 111.445H249.178L249.17 111.767H247.913L247.921 111.445H248.083C248.245 111.445 248.327 111.412 248.327 111.344C248.327 111.316 248.309 111.231 248.272 111.087L247.862 109.567H246.586L246.149 111.034C246.112 111.161 246.094 111.25 246.094 111.302C246.094 111.366 246.107 111.406 246.133 111.421C246.157 111.437 246.22 111.445 246.322 111.445H246.547V111.767H245.476ZM247.248 107.223L246.689 109.197H247.768L247.248 107.223ZM252.226 106.537L252.222 106.203H253.076L255.337 110.616V106.835C255.337 106.704 255.317 106.62 255.278 106.584C255.236 106.553 255.154 106.537 255.034 106.537H254.841L254.853 106.203H256.026V106.537H255.9C255.777 106.537 255.695 106.559 255.656 106.602C255.617 106.646 255.597 106.746 255.597 106.901V111.714V111.803C255.597 111.823 255.596 111.843 255.593 111.863C255.588 111.879 255.581 111.893 255.573 111.905C255.571 111.909 255.561 111.911 255.546 111.911H255.471H255.447H255.435L255.424 111.905C255.418 111.905 255.413 111.903 255.408 111.899C255.405 111.891 255.404 111.885 255.404 111.881C255.404 111.873 255.403 111.867 255.4 111.863C255.392 111.851 255.384 111.837 255.376 111.821C255.374 111.813 255.37 111.803 255.365 111.791C255.359 111.775 255.354 111.765 255.349 111.761L252.946 107.085L252.974 111.058C252.974 111.237 252.995 111.346 253.037 111.386C253.079 111.425 253.193 111.445 253.38 111.445H253.474V111.767H252.316V111.445H252.482C252.581 111.445 252.646 111.423 252.675 111.38C252.698 111.34 252.711 111.239 252.714 111.076V106.632L252.659 106.537H252.226ZM259.531 111.487C259.531 111.431 259.563 111.358 259.626 111.266C259.689 111.179 259.736 111.135 259.767 111.135C259.812 111.135 259.862 111.179 259.917 111.266C259.975 111.362 260.002 111.437 260 111.493C260 111.557 259.971 111.632 259.913 111.72C259.853 111.807 259.803 111.851 259.764 111.851C259.727 111.851 259.68 111.807 259.622 111.72C259.561 111.632 259.531 111.555 259.531 111.487ZM259.535 106.59C259.535 106.487 259.582 106.416 259.677 106.376C259.764 106.336 259.838 106.316 259.901 106.316C259.949 106.316 259.972 106.346 259.972 106.406C259.964 106.803 259.941 107.35 259.901 108.046C259.851 108.833 259.825 109.368 259.823 109.65V109.877C259.823 109.901 259.823 109.936 259.823 109.984C259.82 110.028 259.819 110.056 259.819 110.068V110.217C259.819 110.264 259.815 110.306 259.807 110.342C259.807 110.35 259.806 110.364 259.803 110.384C259.8 110.404 259.796 110.417 259.791 110.425C259.786 110.453 259.777 110.473 259.764 110.485C259.748 110.497 259.735 110.503 259.724 110.503C259.711 110.503 259.699 110.495 259.689 110.479C259.673 110.463 259.662 110.439 259.657 110.408C259.655 110.404 259.653 110.394 259.653 110.378C259.653 110.362 259.651 110.348 259.645 110.336C259.64 110.304 259.638 110.272 259.638 110.241V110.199C259.569 108.954 259.535 107.751 259.535 106.59Z" fill="white"/>
<defs>
<linearGradient id="paint0_linear_2_2" x1="82" y1="25" x2="82" y2="125" gradientUnits="userSpaceOnUse">
<stop stop-color="#BA832C"/>
<stop offset="1" stop-color="#FFB742"/>
</linearGradient>
</defs>
</svg>
